<svg xmlns="http://www.w3.org/2000/svg" width="587.0068" height="380.791" viewBox="0 0 587.0068 380.791"><defs><style>.cls-1{fill:#fff;}.cls-2{fill:#005aa2;}.cls-3{fill:#bcd5ec;}.cls-4{fill:#88b4dc;}</style></defs><g id="Warstwa_2" data-name="Warstwa 2"><g id="Layer_1" data-name="Layer 1"><polygon class="cls-1" points="428.855 32.868 428.855 32.865 428.855 15.751 398.976 33.617 398.976 34.707 398.976 34.71 398.976 85.98 428.855 68.115 428.855 32.868"/><path class="cls-1" d="M320.6448,28.5866c-10.6539,4.2144-20.6911,8.6123-29.878,12.9215V85.981l29.878-17.865V48.287q11.0658-2.73,21.93-4.9633Q331.71,45.57,320.6448,48.283Z"/><path class="cls-1" d="M442.0388,241.042c.189-48.528-3.511-100.976-13.184-139.498l-29.879,17.862c-7.988,35.764-10.558,100.366-7.876,159.836q-6.5955,4.3924-13.3958,8.6691,6.7985-4.2748,13.3958-8.6681c.616,13.764,1.523,27.237,2.702,40.029-.6391.3072-1.2865.6092-1.928.915,3.5186-1.5951,11.5984-5.44,26.328-13.339,12.0441-6.4673,19.1528-10.6051,24.2544-13.6834-.7538.45-1.502.903-2.26,1.3514,1.119-16.561,1.776-34.71,1.848-53.473q14.6361-12.3845,27.5334-25.1361l.0012-.0036Q456.6954,228.6215,442.0388,241.042Z"/><path class="cls-1" d="M320.6438,101.543l-29.878,17.862c-10.564,47.343-11.671,145.197-3.621,214.811,1.0007,8.6419,2.1392,16.8513,3.4222,24.4731,12.0127-3.4028,23.8191-7.25,35.225-11.3458,1.7547-9.0594,3.29-20.1419,4.5368-32.6733q3.4074-1.7228,6.8182-3.5087-3.4108,1.7785-6.8182,3.5077C336.3088,254.508,335.6408,161.28,320.6438,101.543Z"/><path class="cls-1" d="M230.4308,89.972l-9.584-8.219-.84-.718.0149-.01-9.7949-8.8533a314.0512,314.0512,0,0,0-41.588,25.603,140.4768,140.4768,0,0,0-24.95,23.242c-.1455.09-.2763.1707-.411.2541-9.6082,12.0183-16.3525,24.8663-18.331,38.8129l-.0058.0063c-2.9515,20.7894,4.6652,44.0014,29.2448,70.52,40.381,43.577,46.456,87.212-2.236,131.986a227.0214,227.0214,0,0,1-22.0221,17.6632c3.05.155,10.4657.4958,17.2824.5318h2.3162c.6153-.0038,1.2206-.0106,1.8115-.021,7.9552-.144,16.43-.5768,19.048-.7178a255.83,255.83,0,0,0,25.127-20.2352h0c49.148-45.279,61.13-98.182,13.807-147.417C152.0508,152.821,181.3058,117.986,230.4308,89.972Z"/><path class="cls-1" d="M451.5228,287.644c.2862-.17.5311-.3294.7576-.4851-.3788.2369-.7566.4743-1.1368.7107Q451.3332,287.7567,451.5228,287.644Z"/><path class="cls-1" d="M290.7668,56.444q-24.1815,7.242-48.825,16.708Q266.54,63.6645,290.7668,56.444Z"/><path class="cls-2" d="M101.7023,352.8327C87.0253,346.6046,75.49,337.39,67.9778,325.068c-18.8659-30.9465-8.82-75.4266,22.5889-122.1031a351.6886,351.6886,0,0,1,34.3751-42.8809l-.0008.0063.0058-.0063c1.9785-13.9466,8.7228-26.7946,18.331-38.8129.09-.1123.1756-.2259.266-.3381C41.5158,182.174-17.4792,261.023,4.6168,318.251c14.559,37.719,61.525,58.732,125.271,62.037l.04-.0288A227.0214,227.0214,0,0,0,151.95,362.596q-1.8318-.0528-3.6374-.1382C130.6444,361.6218,114.9031,358.4344,101.7023,352.8327Z"/><path class="cls-2" d="M287.1448,334.216c-32.171,12.848-63.267,21.443-91.632,25.601h0a255.83,255.83,0,0,1-25.127,20.2352c-.034.0242-.0669.0486-.101.0728,37.038-2.05,77.903-9.132,120.287-21.406l-.0048-.03C289.284,351.0673,288.1455,342.8579,287.1448,334.216Z"/><path class="cls-2" d="M377.704,287.9111q-3.2653,2.0541-6.5752,4.0809-16.9622,10.3428-33.9818,19.1693-3.41,1.779-6.8182,3.5087c-1.2469,12.5314-2.7821,23.6139-4.5368,32.6733-.0059.03-.0114.0626-.0172.0927q9.6105-3.3825,19.29-7.098,24.2789-9.3746,46.809-20.151c.6415-.3058,1.2889-.6078,1.928-.915-1.179-12.792-2.086-26.265-2.702-40.029Q384.504,283.6367,377.704,287.9111Z"/><path class="cls-2" d="M582.3948,95.231c-6.27-16.2264-18.54-29.363-35.5561-39.3258,8.7186,36.1433-11.0553,84.1583-51.4088,132.0961q-11.7857,14.0018-25.8527,27.9056-12.88,12.7169-27.5334,25.1361c-.072,18.763-.729,36.912-1.848,53.473.7584-.4484,1.5066-.9011,2.26-1.3514,1.3434-.8107,2.547-1.5474,3.6656-2.2342,1.6773-1.019,3.3689-2.0323,5.0218-3.0608.38-.2364.758-.4738,1.1368-.7107,82.3773-51.532,134.4835-114.3527,134.7264-166.194v-.3142A69.9576,69.9576,0,0,0,582.3948,95.231Z"/><path class="cls-3" d="M539.35,37.649C523.9039,12.3127,491.5153.0356,449.6133,0H448.91c-37.077.0894-81.5323,9.7114-128.265,28.313v19.97q11.0658-2.7278,21.93-4.9593a524.2079,524.2079,0,0,1,56.4009-8.6167v-1.09l29.879-17.866V32.865a345.859,345.859,0,0,1,42.0156,1.35q10.13.9766,19.5841,2.5962c22.02,3.7723,41.1181,10.1488,56.3833,19.0874A63.4847,63.4847,0,0,0,539.35,37.649Z"/><path class="cls-3" d="M220.0217,81.0253l-.0149.01.84.718c6.932-2.952,13.935-5.839,21.095-8.601q24.5985-9.4875,48.825-16.708V41.335a578.3918,578.3918,0,0,0-54.555,29.389C230.6989,74.0869,225.3239,77.5346,220.0217,81.0253Z"/><path class="cls-4" d="M124.941,160.09l.0008-.0063a351.6886,351.6886,0,0,0-34.3751,42.8809C59.1575,249.6414,49.1119,294.1215,67.9778,325.068c7.5126,12.3221,19.0475,21.5366,33.7245,27.7647,12.141,5.152,26.4356,8.256,42.397,9.3726,1.3933.0974,2.7946.1853,4.2131.2525q1.8056.0853,3.6374.1382c48.692-44.774,42.617-88.409,2.236-131.986C129.6062,204.0917,121.99,180.88,124.941,160.09Z"/><path class="cls-4" d="M546.8387,55.9052l-.0009-.0042c-15.2655-8.9374-34.3639-15.3154-56.3833-19.0894q-9.444-1.6186-19.5841-2.5962a345.859,345.859,0,0,0-42.0156-1.35v35.25L398.9758,85.98V34.707a524.2079,524.2079,0,0,0-56.4009,8.6167q-10.8645,2.2479-21.93,4.9633V68.116l-29.878,17.865V56.444q-24.1815,7.248-48.825,16.708c-7.16,2.762-14.163,5.649-21.095,8.601l9.584,8.219c-49.125,28.014-78.38,62.849-21.111,122.428,47.323,49.235,35.341,102.138-13.807,147.417,28.365-4.158,59.461-12.753,91.632-25.601-8.05-69.614-6.943-167.468,3.621-214.811l29.878-17.862c14.997,59.737,15.665,152.965,9.685,213.126q3.4067-1.7221,6.8182-3.5077,16.9845-8.8569,33.9818-19.1693,3.3164-2.0228,6.5752-4.0809,6.7983-4.276,13.3958-8.6691c-2.682-59.47-.112-124.072,7.876-159.836l29.879-17.862c9.673,38.522,13.373,90.97,13.184,139.498q14.64-12.3857,27.54-25.1387,14.0385-13.8588,25.8515-27.902C535.7834,140.0635,555.5573,92.0485,546.8387,55.9052Z"/></g></g></svg>